<?xml version="1.0" encoding="UTF-8" standalone="no"?>
<!DOCTYPE svg PUBLIC "-//W3C//DTD SVG 1.1//EN" "http://www.w3.org/Graphics/SVG/1.1/DTD/svg11.dtd">
<svg width="100%" height="100%" viewBox="0 0 95 162" version="1.1" xmlns="http://www.w3.org/2000/svg"
    xmlns:xlink="http://www.w3.org/1999/xlink" xml:space="preserve" xmlns:serif="http://www.serif.com/"
    style="fill-rule:evenodd;clip-rule:evenodd;stroke-linejoin:round;stroke-miterlimit:2;">
    <g>
        <path
            d="M0,103.417l0,-100.834l36.792,0l-0,113.959c-0,-0 -7.584,-0.292 -12.671,-7.542l-0,-96.958l-11.458,-0l-0,91.375c-0,9.791 3.416,16.5 10.374,20.458c0.38,0.208 0.755,0.375 1.084,0.583c5.087,2.5 10.046,2.709 10.458,2.709l60.629,-0l0,35.333l-50.958,0c-5.875,-4.083 -7.171,-9.708 -7.458,-11.792l-0,-0.083c-0.084,-0.458 -0.13,-0.792 -0.13,-0.792l45.963,0l-0,-10l-48.088,0c-0.208,0 -4.708,-0.125 -10.416,-1.87c-10.125,-3.255 -24.121,-11.755 -24.121,-34.546Z"
            style="fill:#currentColor;fill-rule:nonzero;" />
        <path
            d="M34.579,127.167c-0.412,-0 -5.371,-0.209 -10.458,-2.709c-0.329,-0.208 -0.704,-0.375 -1.084,-0.583c-6.958,-3.958 -10.374,-10.667 -10.374,-20.458l-0,-91.375l11.458,-0l-0,96.958c5.087,7.25 12.671,7.542 12.671,7.542l-0,-113.959l-36.792,0l0,100.834c0,22.791 13.996,31.291 24.121,34.546c5.708,1.745 10.208,1.87 10.416,1.87l48.088,0l-0,10l-45.963,0c0,0 0.046,0.334 0.13,0.792l-0,0.083c0.287,2.084 1.583,7.709 7.458,11.792l50.958,0l0,-35.333l-60.629,-0Zm0,-0c-0.412,-0 -5.371,-0.209 -10.458,-2.709c-0.329,-0.208 -0.704,-0.375 -1.084,-0.583c-6.958,-3.958 -10.374,-10.667 -10.374,-20.458l-0,-91.375l11.458,-0l-0,96.958c5.087,7.25 12.671,7.542 12.671,7.542l-0,-113.959l-36.792,0l0,100.834c0,22.791 13.996,31.291 24.121,34.546c5.708,1.745 10.208,1.87 10.416,1.87l48.088,0l-0,10l-45.963,0c0,0 0.046,0.334 0.13,0.792l-0,0.083c0.287,2.084 1.583,7.709 7.458,11.792l50.958,0l0,-35.333l-60.629,-0Z"
            style="fill:#currentColor;fill-rule:nonzero;" />
    </g>
</svg>