<svg viewBox="0 0 1120 233" xmlns="http://www.w3.org/2000/svg"><path d="m127.671 197.663h-50.946c-5.867-4.096-7.15-9.717-7.454-11.792v-.063c-.063-.487-.121-.791-.121-.791h45.938v-10.021h-48.075c-.184 0-4.705-.121-10.388-1.892-10.138-3.237-24.129-11.729-24.129-34.512v-100.855h36.775v113.988s-7.575-.308-12.646-7.575v-96.946h-11.483v91.388c0 9.771 3.42 16.491 10.383 20.462.367.183.733.367 1.1.55 5.071 2.504 10.021 2.75 10.446 2.75h60.6zm-127.671-195.663v231.333h160.167v-231.333z"/><path d="m259.821 72.917h-16.692v89.012h60.188v-15.342h-43.496z"/><path d="m425.292 117.608c0 4.35-.759 8.4-2.259 12.038-1.5 3.629-3.587 6.825-6.212 9.496-2.608 2.654-5.767 4.766-9.383 6.275-7.246 3.012-16.742 3.012-23.959 0-3.625-1.513-6.808-3.625-9.458-6.284-2.646-2.658-4.729-5.845-6.188-9.475-1.466-3.633-2.208-7.683-2.208-12.05 0-4.358.762-8.45 2.267-12.17 1.504-3.721 3.595-6.975 6.212-9.675 2.604-2.696 5.775-4.825 9.429-6.33 3.663-1.508 7.675-2.275 11.925-2.275 4.246 0 8.234.763 11.859 2.275 3.621 1.505 6.796 3.638 9.446 6.338 2.658 2.704 4.762 5.954 6.262 9.667 1.504 3.72 2.267 7.812 2.267 12.17zm3.525-32.57c-4.117-4.076-9.075-7.33-14.738-9.684-5.671-2.35-11.937-3.537-18.621-3.537-6.683 0-12.95 1.187-18.62 3.537-5.663 2.354-10.621 5.608-14.734 9.684-4.125 4.083-7.379 8.962-9.687 14.495-2.313 5.542-3.484 11.625-3.484 18.075 0 6.367 1.171 12.409 3.484 17.946 2.308 5.546 5.57 10.404 9.691 14.446 4.121 4.033 9.084 7.25 14.738 9.554 5.658 2.309 11.921 3.475 18.612 3.475 6.692 0 12.954-1.166 18.613-3.475 5.658-2.304 10.617-5.521 14.737-9.554 4.129-4.05 7.392-8.908 9.692-14.442 2.312-5.541 3.483-11.583 3.483-17.95 0-6.45-1.171-12.533-3.483-18.071-2.3-5.529-5.554-10.408-9.683-14.499z"/><path d="m559.929 123.183c0 7.659-1.867 13.738-5.55 18.079-3.679 4.321-8.946 6.425-16.1 6.425-7.158 0-12.4-2.1-16.033-6.42-3.646-4.342-5.496-10.421-5.496-18.084v-50.266h-16.683v50.066c0 6.425.912 12.196 2.725 17.15 1.825 5.005 4.433 9.242 7.758 12.596 3.329 3.371 7.412 5.963 12.133 7.7 4.688 1.729 9.959 2.6 15.655 2.6 5.7 0 10.962-.871 15.654-2.6 4.712-1.737 8.8-4.329 12.137-7.7 3.325-3.362 5.938-7.6 7.759-12.596 1.812-4.954 2.724-10.725 2.724-17.15v-50.066h-16.683z"/><path d="m719.854 72.917-37.475 63.487-37.587-63.487h-6.425l-3.671 89.012h16.566l1.805-44.625 26.337 45.484h5.954l26.238-45.375 1.908 44.516h16.446l-3.671-89.012z"/><path d="m828.025 71.696h-5.279l-42.525 90.233h17.891l27.33-60.204 11.487 25.404h-13.596l-6.121 13.688h25.905l9.546 21.112h17.883l-9.95-21.112h11.383v-13.688h-17.833z"/><path d="m969.817 104.167c0 4.929-1.534 8.787-4.692 11.783-3.179 3.025-7.267 4.492-12.504 4.492h-15.725v-32.184h15.725c5.175 0 9.383 1.475 12.516 4.384 3.146 2.916 4.68 6.687 4.68 11.525zm11.571 18.391c3.637-5.141 5.483-11.279 5.483-18.258 0-4.592-.825-8.846-2.454-12.65-1.621-3.804-3.942-7.15-6.896-9.933-2.942-2.775-6.509-4.963-10.604-6.5-4.075-1.525-8.617-2.3-13.5-2.3h-33.205v89.012h16.684v-26.141h14.225l19.846 26.141h19.95l-22.296-29.075c5.242-2.267 9.529-5.725 12.767-10.296z"/><path d="m1108.75 140.471c-2.708 2.241-5.846 4.046-9.333 5.362-7.117 2.696-16.325 2.642-23.534-.3-3.708-1.512-6.966-3.629-9.7-6.291-2.733-2.671-4.921-5.888-6.5-9.559-1.571-3.658-2.371-7.762-2.371-12.2 0-4.437.8-8.562 2.375-12.262 1.575-3.704 3.763-6.942 6.496-9.613 2.729-2.658 5.988-4.758 9.684-6.229 7.1-2.812 16.016-2.929 23.42-.408 3.492 1.187 6.663 3.037 9.421 5.492l1.421 1.258 8.125-13.763-1.054-.85c-3.542-2.837-7.833-5.121-12.754-6.787-4.913-1.663-10.442-2.504-16.45-2.504-6.759 0-13.096 1.146-18.83 3.408-5.741 2.263-10.804 5.454-15.05 9.483-4.25 4.042-7.595 8.904-9.945 14.45-2.359 5.538-3.55 11.705-3.55 18.325 0 6.538 1.191 12.684 3.545 18.263 2.35 5.587 5.696 10.466 9.95 14.516 4.246 4.03 9.309 7.221 15.05 9.484 5.734 2.262 12.071 3.408 18.83 3.408 6.004 0 11.537-.842 16.45-2.504 4.916-1.663 9.208-3.95 12.754-6.792l1.054-.846-8.092-13.712z"/></svg>