<?xml version="1.0" standalone="no"?>
<!DOCTYPE svg PUBLIC "-//W3C//DTD SVG 20010904//EN"
 "http://www.w3.org/TR/2001/REC-SVG-20010904/DTD/svg10.dtd">
<svg version="1.0" xmlns="http://www.w3.org/2000/svg"
 width="700.000000pt" height="700.000000pt" viewBox="0 0 700.000000 700.000000"
 preserveAspectRatio="xMidYMid meet">
<metadata>
Created by potrace 1.14, written by Peter Selinger 2001-2017
</metadata>
<g transform="translate(0.000000,700.000000) scale(0.100000,-0.100000)"
fill="#000000" stroke="none">
<path d="M0 3500 l0 -3500 3500 0 3500 0 0 3500 0 3500 -3500 0 -3500 0 0
-3500z m3008 1423 l2 -1293 -29 0 c-53 0 -219 48 -306 89 -162 76 -312 193
-411 323 l-44 56 0 666 0 666 -326 0 -325 0 4 -652 c4 -705 4 -706 62 -913 32
-112 118 -289 184 -376 188 -247 480 -420 866 -512 l90 -21 1758 -3 1757 -3 0
-1115 0 -1115 -1413 0 -1414 0 -74 63 c-133 114 -211 216 -286 373 -44 92 -93
260 -93 315 l0 29 1250 0 1250 0 0 330 0 329 -1367 4 c-1363 3 -1368 3 -1486
25 -512 96 -914 279 -1232 560 -280 248 -489 618 -578 1022 -61 274 -61 273
-65 1394 -2 566 -1 1035 2 1042 5 12 178 14 1113 12 l1108 -3 3 -1292z"/>
</g>
</svg>
